<?xml version="1.0" encoding="utf-8"?>
<!-- Generator: Adobe Illustrator 21.0.0, SVG Export Plug-In . SVG Version: 6.00 Build 0)  -->
<svg version="1.1" id="Livello_1" xmlns="http://www.w3.org/2000/svg" xmlns:xlink="http://www.w3.org/1999/xlink" x="0px" y="0px"
	 viewBox="0 0 39 39" style="enable-background:new 0 0 39 39;" xml:space="preserve">
<style type="text/css">
	.st0{fill:#35B250;}
	.st1{fill:#FFFFFF;}
</style>
<title>Next</title>
<desc>Created with Sketch.</desc>
<g id="_x30_5.100.00-OpenSource-Amplitude">
	<g id="HD_05.100.00-521Website_OpenSource-Amplitude" transform="translate(-568.000000, -782.000000)">
		<g id="Lead-in">
			<g id="Player" transform="translate(368.000000, 359.000000)">
				<g id="Controllers_x2F_Status_x2F_Info" transform="translate(0.000000, 357.000000)">
					<g id="Controls" transform="translate(114.000000, 56.000000)">
						<g id="Next" transform="translate(86.000000, 10.000000)">
							<ellipse id="Oval-1-Copy" class="st0" cx="19.5" cy="19.5" rx="19.5" ry="19.5"/>
							<path id="Shape" class="st1" d="M27.7,11h-2.5c-0.7,0-1.3,0.6-1.3,1.3v5.9l-11.3-7c-0.9-0.6-1.6-0.1-1.6,0.9v14.1
								c0,1.1,0.7,1.5,1.6,0.9l11.3-7v5.9c0,0.7,0.6,1.3,1.3,1.3h2.5c0.7,0,1.3-0.6,1.3-1.3V12.3C29,11.6,28.4,11,27.7,11L27.7,11z"
								/>
						</g>
					</g>
				</g>
			</g>
		</g>
	</g>
</g>
</svg>
